<?xml version="1.0" encoding="UTF-8"?>
<mxfile host="wiki.gematik.de" agent="Mozilla/5.0 (Windows NT 10.0; Win64; x64) AppleWebKit/537.36 (KHTML, like Gecko) Chrome/137.0.0.0 Safari/537.36" version="26.1.3">
  <diagram id="XZqBrHnGn3-9SLynYtlv" name="Seite-1">
    <mxGraphModel dx="1962" dy="904" grid="1" gridSize="10" guides="1" tooltips="1" connect="1" arrows="1" fold="1" page="0" pageScale="1" pageWidth="827" pageHeight="1169" math="0" shadow="0">
      <root>
        <mxCell id="0" />
        <mxCell id="1" parent="0" />
        <mxCell id="Ux8lGl-wnyfo4ktNm6vA-50" value="" style="rounded=0;whiteSpace=wrap;html=1;fillColor=#edfdec;strokeColor=#82b366;align=center;verticalAlign=top;" parent="1" vertex="1">
          <mxGeometry x="490" y="70" width="790" height="510" as="geometry" />
        </mxCell>
        <mxCell id="Ux8lGl-wnyfo4ktNm6vA-48" value="" style="rounded=0;whiteSpace=wrap;html=1;fillColor=#edfdec;strokeColor=#82b366;align=center;verticalAlign=top;" parent="1" vertex="1">
          <mxGeometry x="480" y="80" width="790" height="510" as="geometry" />
        </mxCell>
        <mxCell id="29rTgdMoYmhlcVRQ41To-1" value="&lt;b&gt;Versichertenstammdatendienst&lt;/b&gt;" style="rounded=0;whiteSpace=wrap;html=1;fillColor=#edfdec;strokeColor=#82b366;align=center;verticalAlign=top;" parent="1" vertex="1">
          <mxGeometry x="470" y="90" width="790" height="530" as="geometry" />
        </mxCell>
        <mxCell id="gxVGAsNlWDkxe-efT7vW-6" value="" style="edgeStyle=orthogonalEdgeStyle;rounded=1;orthogonalLoop=1;jettySize=auto;html=1;entryX=1;entryY=1;entryDx=0;entryDy=0;exitX=0.5;exitY=1;exitDx=0;exitDy=0;curved=0;" parent="1" source="gxVGAsNlWDkxe-efT7vW-1" target="29rTgdMoYmhlcVRQ41To-34" edge="1">
          <mxGeometry relative="1" as="geometry">
            <Array as="points">
              <mxPoint x="1060" y="583" />
            </Array>
          </mxGeometry>
        </mxCell>
        <mxCell id="gxVGAsNlWDkxe-efT7vW-1" value="Business-Logic" style="rounded=0;whiteSpace=wrap;html=1;fillColor=#edfdec;strokeColor=#82b366;align=center;verticalAlign=top;" parent="1" vertex="1">
          <mxGeometry x="880" y="120" width="360" height="420" as="geometry" />
        </mxCell>
        <mxCell id="mA7ABEJn_w4v4imi2nxo-2" value="&lt;u&gt;Optionen&lt;/u&gt;:&lt;div&gt;&lt;span style=&quot;background-color: initial;&quot;&gt;TLS kann am Ingress &amp;amp; Egress ODER HTTP-Proxy terminieren.&lt;/span&gt;&lt;/div&gt;" style="rounded=0;whiteSpace=wrap;html=1;align=left;verticalAlign=top;" parent="1" vertex="1">
          <mxGeometry x="-10" y="100" width="180" height="60" as="geometry" />
        </mxCell>
        <mxCell id="Ux8lGl-wnyfo4ktNm6vA-52" value="" style="rounded=0;whiteSpace=wrap;html=1;fillColor=#EDFDEC;strokeColor=#82B366;verticalAlign=top;" parent="1" vertex="1">
          <mxGeometry x="210" y="100" width="120" height="480" as="geometry" />
        </mxCell>
        <mxCell id="Ux8lGl-wnyfo4ktNm6vA-51" value="" style="rounded=0;whiteSpace=wrap;html=1;fillColor=#EDFDEC;strokeColor=#82B366;verticalAlign=top;" parent="1" vertex="1">
          <mxGeometry x="200" y="110" width="120" height="490" as="geometry" />
        </mxCell>
        <mxCell id="29rTgdMoYmhlcVRQ41To-2" value="ZETA Guard" style="rounded=0;whiteSpace=wrap;html=1;align=center;verticalAlign=top;fillColor=#fff3e5;strokeColor=#d79b00;" parent="1" vertex="1">
          <mxGeometry x="480" y="120" width="380" height="420" as="geometry" />
        </mxCell>
        <mxCell id="29rTgdMoYmhlcVRQ41To-3" value="Ingress&lt;div&gt;und&lt;/div&gt;&lt;div&gt;Egress&lt;div&gt;&lt;/div&gt;&lt;/div&gt;" style="rounded=0;whiteSpace=wrap;html=1;fillColor=#ffe6cc;strokeColor=#d79b00;verticalAlign=top;" parent="1" vertex="1">
          <mxGeometry x="490" y="130" width="50" height="400" as="geometry" />
        </mxCell>
        <mxCell id="29rTgdMoYmhlcVRQ41To-4" value="Legende" style="rounded=0;whiteSpace=wrap;html=1;align=left;verticalAlign=top;" parent="1" vertex="1">
          <mxGeometry x="-10" y="640" width="180" height="200" as="geometry" />
        </mxCell>
        <mxCell id="29rTgdMoYmhlcVRQ41To-6" value="&amp;nbsp;PDP&amp;nbsp;" style="rounded=0;whiteSpace=wrap;html=1;fillColor=none;verticalAlign=top;strokeColor=#FFB570;dashed=1;strokeWidth=2;align=left;" parent="1" vertex="1">
          <mxGeometry x="550" y="270" width="300" height="200" as="geometry" />
        </mxCell>
        <mxCell id="29rTgdMoYmhlcVRQ41To-9" style="edgeStyle=orthogonalEdgeStyle;rounded=0;orthogonalLoop=1;jettySize=auto;html=1;entryX=0.5;entryY=0;entryDx=0;entryDy=0;" parent="1" source="29rTgdMoYmhlcVRQ41To-15" target="29rTgdMoYmhlcVRQ41To-18" edge="1">
          <mxGeometry relative="1" as="geometry">
            <mxPoint x="630" y="360" as="targetPoint" />
          </mxGeometry>
        </mxCell>
        <mxCell id="7Tdx6mqpSsqZb4YxP3zN-2" value="" style="edgeStyle=orthogonalEdgeStyle;rounded=0;orthogonalLoop=1;jettySize=auto;html=1;" parent="1" source="29rTgdMoYmhlcVRQ41To-15" target="7Tdx6mqpSsqZb4YxP3zN-1" edge="1">
          <mxGeometry relative="1" as="geometry" />
        </mxCell>
        <mxCell id="29rTgdMoYmhlcVRQ41To-15" value="Authorization Server" style="rounded=0;whiteSpace=wrap;html=1;fillColor=#ffe6cc;strokeColor=#d79b00;" parent="1" vertex="1">
          <mxGeometry x="570" y="360" width="120" height="40" as="geometry" />
        </mxCell>
        <mxCell id="29rTgdMoYmhlcVRQ41To-16" style="edgeStyle=orthogonalEdgeStyle;rounded=1;orthogonalLoop=1;jettySize=auto;html=1;exitX=0;exitY=0.5;exitDx=0;exitDy=0;curved=0;endArrow=none;endFill=0;" parent="1" source="29rTgdMoYmhlcVRQ41To-18" edge="1">
          <mxGeometry relative="1" as="geometry">
            <Array as="points">
              <mxPoint x="450" y="441" />
            </Array>
            <mxPoint x="450" y="690" as="targetPoint" />
          </mxGeometry>
        </mxCell>
        <mxCell id="29rTgdMoYmhlcVRQ41To-18" value="Policy Engine" style="rounded=0;whiteSpace=wrap;html=1;fillColor=#ffe6cc;strokeColor=#d79b00;" parent="1" vertex="1">
          <mxGeometry x="570" y="421.25" width="120" height="40" as="geometry" />
        </mxCell>
        <mxCell id="29rTgdMoYmhlcVRQ41To-22" value="&lt;div&gt;VSDM Resource Server&lt;/div&gt;" style="rounded=0;whiteSpace=wrap;html=1;fillColor=#d5e8d4;strokeColor=#82b366;verticalAlign=top;" parent="1" vertex="1">
          <mxGeometry x="890" y="150" width="340" height="240" as="geometry" />
        </mxCell>
        <mxCell id="kJqwXl-6ZBxffu8ja5CK-5" value="" style="edgeStyle=orthogonalEdgeStyle;rounded=1;orthogonalLoop=1;jettySize=auto;html=1;curved=0;endArrow=none;endFill=0;exitX=0;exitY=0.25;exitDx=0;exitDy=0;" parent="1" source="29rTgdMoYmhlcVRQ41To-28" edge="1">
          <mxGeometry relative="1" as="geometry">
            <mxPoint x="725" y="494.5" as="sourcePoint" />
            <mxPoint x="520" y="710" as="targetPoint" />
            <Array as="points">
              <mxPoint x="710" y="500" />
              <mxPoint x="710" y="475" />
              <mxPoint x="455" y="475" />
              <mxPoint x="455" y="660" />
              <mxPoint x="520" y="660" />
            </Array>
          </mxGeometry>
        </mxCell>
        <mxCell id="29rTgdMoYmhlcVRQ41To-28" value="Telemetrie-Daten&amp;nbsp;&lt;span style=&quot;background-color: initial;&quot;&gt;Service&lt;/span&gt;" style="rounded=0;whiteSpace=wrap;html=1;fillColor=#ffe6cc;strokeColor=#d79b00;" parent="1" vertex="1">
          <mxGeometry x="730" y="490" width="120" height="40" as="geometry" />
        </mxCell>
        <mxCell id="29rTgdMoYmhlcVRQ41To-29" style="edgeStyle=orthogonalEdgeStyle;rounded=1;orthogonalLoop=1;jettySize=auto;html=1;curved=0;exitX=0;exitY=0.5;exitDx=0;exitDy=0;endArrow=none;endFill=0;" parent="1" source="29rTgdMoYmhlcVRQ41To-31" edge="1">
          <mxGeometry relative="1" as="geometry">
            <Array as="points">
              <mxPoint x="465" y="510" />
              <mxPoint x="465" y="640" />
              <mxPoint x="650" y="640" />
            </Array>
            <mxPoint x="650" y="700" as="targetPoint" />
          </mxGeometry>
        </mxCell>
        <mxCell id="29rTgdMoYmhlcVRQ41To-31" value="Management&lt;div&gt;Service&lt;/div&gt;" style="rounded=0;whiteSpace=wrap;html=1;fillColor=#ffe6cc;strokeColor=#d79b00;" parent="1" vertex="1">
          <mxGeometry x="570" y="490" width="120" height="40" as="geometry" />
        </mxCell>
        <mxCell id="gxVGAsNlWDkxe-efT7vW-7" value="" style="edgeStyle=orthogonalEdgeStyle;rounded=0;orthogonalLoop=1;jettySize=auto;html=1;entryX=0.418;entryY=0.014;entryDx=0;entryDy=0;entryPerimeter=0;" parent="1" source="29rTgdMoYmhlcVRQ41To-34" target="29rTgdMoYmhlcVRQ41To-53" edge="1">
          <mxGeometry relative="1" as="geometry" />
        </mxCell>
        <mxCell id="29rTgdMoYmhlcVRQ41To-34" value="&lt;div&gt;Monitoring&lt;/div&gt;" style="rounded=0;whiteSpace=wrap;html=1;fillColor=#d5e8d4;strokeColor=#82b366;" parent="1" vertex="1">
          <mxGeometry x="730" y="556" width="300" height="27" as="geometry" />
        </mxCell>
        <mxCell id="29rTgdMoYmhlcVRQ41To-39" value="&lt;b&gt;Clientsystem&lt;/b&gt;" style="rounded=0;whiteSpace=wrap;html=1;fillColor=#EDFDEC;strokeColor=#82B366;verticalAlign=top;" parent="1" vertex="1">
          <mxGeometry x="190" y="120" width="120" height="490" as="geometry" />
        </mxCell>
        <mxCell id="29rTgdMoYmhlcVRQ41To-44" value="SM(C)-B" style="rounded=0;whiteSpace=wrap;html=1;fillColor=#eeeeee;strokeColor=#36393d;" parent="1" vertex="1">
          <mxGeometry x="75.24" y="220" width="65" height="40" as="geometry" />
        </mxCell>
        <mxCell id="kJqwXl-6ZBxffu8ja5CK-8" value="" style="edgeStyle=orthogonalEdgeStyle;rounded=1;orthogonalLoop=1;jettySize=auto;html=1;entryX=0.5;entryY=1;entryDx=0;entryDy=0;exitX=0;exitY=0;exitDx=0;exitDy=0;startArrow=classic;startFill=1;curved=0;" parent="1" source="29rTgdMoYmhlcVRQ41To-53" target="29rTgdMoYmhlcVRQ41To-2" edge="1">
          <mxGeometry relative="1" as="geometry">
            <mxPoint x="785" y="640" as="targetPoint" />
            <Array as="points">
              <mxPoint x="670" y="583" />
            </Array>
          </mxGeometry>
        </mxCell>
        <mxCell id="29rTgdMoYmhlcVRQ41To-53" value="&lt;div&gt;SIEM&lt;/div&gt;" style="rounded=0;whiteSpace=wrap;html=1;fillColor=#D5E8D4;strokeColor=#82B366;" parent="1" vertex="1">
          <mxGeometry x="730" y="583" width="300" height="27" as="geometry" />
        </mxCell>
        <mxCell id="29rTgdMoYmhlcVRQ41To-60" value="" style="rounded=0;whiteSpace=wrap;html=1;fillColor=#ffe6cc;strokeColor=#d79b00;" parent="1" vertex="1">
          <mxGeometry y="680" width="80" height="20" as="geometry" />
        </mxCell>
        <mxCell id="29rTgdMoYmhlcVRQ41To-61" value="Zero Trust" style="text;html=1;align=right;verticalAlign=middle;whiteSpace=wrap;rounded=0;" parent="1" vertex="1">
          <mxGeometry x="90" y="680" width="70" height="20" as="geometry" />
        </mxCell>
        <mxCell id="29rTgdMoYmhlcVRQ41To-62" value="" style="rounded=0;whiteSpace=wrap;html=1;fillColor=#d5e8d4;strokeColor=#82b366;" parent="1" vertex="1">
          <mxGeometry y="710" width="80" height="20" as="geometry" />
        </mxCell>
        <mxCell id="29rTgdMoYmhlcVRQ41To-63" value="Anwendung" style="text;html=1;align=right;verticalAlign=middle;whiteSpace=wrap;rounded=0;" parent="1" vertex="1">
          <mxGeometry x="90" y="710" width="70" height="20" as="geometry" />
        </mxCell>
        <mxCell id="29rTgdMoYmhlcVRQ41To-64" value="" style="rounded=0;whiteSpace=wrap;html=1;fillColor=#f5f5f5;strokeColor=#666666;fontColor=#333333;" parent="1" vertex="1">
          <mxGeometry y="740" width="80" height="20" as="geometry" />
        </mxCell>
        <mxCell id="29rTgdMoYmhlcVRQ41To-65" value="Bestehende &lt;br&gt;Systeme" style="text;html=1;align=right;verticalAlign=middle;whiteSpace=wrap;rounded=0;" parent="1" vertex="1">
          <mxGeometry x="90" y="739.75" width="70" height="20" as="geometry" />
        </mxCell>
        <mxCell id="29rTgdMoYmhlcVRQ41To-66" style="edgeStyle=orthogonalEdgeStyle;rounded=1;orthogonalLoop=1;jettySize=auto;html=1;curved=0;" parent="1" edge="1">
          <mxGeometry relative="1" as="geometry">
            <mxPoint y="824.71" as="sourcePoint" />
            <mxPoint x="40" y="824.71" as="targetPoint" />
            <Array as="points">
              <mxPoint x="20" y="825" />
              <mxPoint x="20" y="825" />
            </Array>
          </mxGeometry>
        </mxCell>
        <mxCell id="29rTgdMoYmhlcVRQ41To-67" value="Kommunikation" style="text;html=1;align=right;verticalAlign=middle;whiteSpace=wrap;rounded=0;" parent="1" vertex="1">
          <mxGeometry x="70" y="815" width="90" height="20" as="geometry" />
        </mxCell>
        <mxCell id="29rTgdMoYmhlcVRQ41To-70" style="edgeStyle=orthogonalEdgeStyle;rounded=1;orthogonalLoop=1;jettySize=auto;html=1;entryX=0;entryY=0.25;entryDx=0;entryDy=0;curved=0;exitX=1.008;exitY=0.872;exitDx=0;exitDy=0;exitPerimeter=0;" parent="1" source="29rTgdMoYmhlcVRQ41To-76" target="29rTgdMoYmhlcVRQ41To-15" edge="1">
          <mxGeometry relative="1" as="geometry">
            <Array as="points">
              <mxPoint x="350" y="262" />
              <mxPoint x="350" y="370" />
            </Array>
          </mxGeometry>
        </mxCell>
        <mxCell id="29rTgdMoYmhlcVRQ41To-76" value="ZETA Client&lt;div&gt;(ZT Client-Funkt)&lt;/div&gt;" style="rounded=0;whiteSpace=wrap;html=1;fillColor=#ffe6cc;strokeColor=#d79b00;" parent="1" vertex="1">
          <mxGeometry x="200" y="210" width="100" height="60" as="geometry" />
        </mxCell>
        <mxCell id="29rTgdMoYmhlcVRQ41To-77" value="&amp;nbsp;PEP&amp;nbsp;" style="rounded=0;whiteSpace=wrap;html=1;fillColor=none;verticalAlign=top;strokeColor=#FFB570;dashed=1;strokeWidth=2;align=left;" parent="1" vertex="1">
          <mxGeometry x="550" y="150" width="300" height="110" as="geometry" />
        </mxCell>
        <mxCell id="y5Bz5w09_a10lvHmToGj-6" value="" style="edgeStyle=orthogonalEdgeStyle;rounded=0;orthogonalLoop=1;jettySize=auto;html=1;curved=0;entryX=0;entryY=0.25;entryDx=0;entryDy=0;exitX=0.989;exitY=0.564;exitDx=0;exitDy=0;exitPerimeter=0;" parent="1" source="29rTgdMoYmhlcVRQ41To-78" target="y5Bz5w09_a10lvHmToGj-5" edge="1">
          <mxGeometry relative="1" as="geometry" />
        </mxCell>
        <mxCell id="29rTgdMoYmhlcVRQ41To-78" value="HTTP-Proxy" style="rounded=0;whiteSpace=wrap;html=1;fillColor=#ffe6cc;strokeColor=#d79b00;" parent="1" vertex="1">
          <mxGeometry x="570" y="180" width="120" height="70" as="geometry" />
        </mxCell>
        <mxCell id="mJ-3obKRto_tGQeoeEUm-2" value="" style="edgeStyle=orthogonalEdgeStyle;rounded=0;orthogonalLoop=1;jettySize=auto;html=1;entryX=0.25;entryY=1;entryDx=0;entryDy=0;exitX=0.25;exitY=0;exitDx=0;exitDy=0;" parent="1" source="29rTgdMoYmhlcVRQ41To-85" target="29rTgdMoYmhlcVRQ41To-76" edge="1">
          <mxGeometry relative="1" as="geometry" />
        </mxCell>
        <mxCell id="eh9vk2TK4S6zh4HiUIDi-2" value="" style="edgeStyle=orthogonalEdgeStyle;rounded=0;orthogonalLoop=1;jettySize=auto;html=1;" parent="1" source="29rTgdMoYmhlcVRQ41To-85" target="eh9vk2TK4S6zh4HiUIDi-1" edge="1">
          <mxGeometry relative="1" as="geometry" />
        </mxCell>
        <mxCell id="29rTgdMoYmhlcVRQ41To-85" value="&lt;div&gt;VSDM&lt;/div&gt;&lt;div&gt;(Client-Funkt.)&lt;/div&gt;" style="rounded=0;whiteSpace=wrap;html=1;fillColor=#d5e8d4;strokeColor=#82b366;" parent="1" vertex="1">
          <mxGeometry x="200" y="320" width="100" height="40" as="geometry" />
        </mxCell>
        <mxCell id="mJ-3obKRto_tGQeoeEUm-1" value="" style="edgeStyle=orthogonalEdgeStyle;rounded=0;orthogonalLoop=1;jettySize=auto;html=1;startArrow=classic;startFill=1;endArrow=none;endFill=0;exitX=0.855;exitY=0;exitDx=0;exitDy=4.35;exitPerimeter=0;entryX=0.71;entryY=1.011;entryDx=0;entryDy=0;entryPerimeter=0;" parent="1" source="29rTgdMoYmhlcVRQ41To-87" target="29rTgdMoYmhlcVRQ41To-85" edge="1">
          <mxGeometry relative="1" as="geometry" />
        </mxCell>
        <mxCell id="RsZEj9lyrCXEbWaPnTaj-8" value="" style="edgeStyle=orthogonalEdgeStyle;rounded=0;orthogonalLoop=1;jettySize=auto;html=1;exitX=0.145;exitY=0;exitDx=0;exitDy=4.35;exitPerimeter=0;entryX=0.285;entryY=0.997;entryDx=0;entryDy=0;entryPerimeter=0;" parent="1" source="29rTgdMoYmhlcVRQ41To-87" target="29rTgdMoYmhlcVRQ41To-85" edge="1">
          <mxGeometry relative="1" as="geometry" />
        </mxCell>
        <mxCell id="29rTgdMoYmhlcVRQ41To-87" value="&lt;span style=&quot;background-color: initial;&quot;&gt;DB&lt;/span&gt;" style="shape=cylinder3;whiteSpace=wrap;html=1;boundedLbl=1;backgroundOutline=1;size=15;fillColor=#d5e8d4;strokeColor=#82b366;" parent="1" vertex="1">
          <mxGeometry x="220" y="417" width="60" height="70" as="geometry" />
        </mxCell>
        <mxCell id="29rTgdMoYmhlcVRQ41To-37" style="edgeStyle=orthogonalEdgeStyle;rounded=1;orthogonalLoop=1;jettySize=auto;html=1;entryX=1;entryY=0.5;entryDx=0;entryDy=0;curved=0;exitX=0;exitY=0.5;exitDx=0;exitDy=0;" parent="1" source="29rTgdMoYmhlcVRQ41To-76" target="29rTgdMoYmhlcVRQ41To-44" edge="1">
          <mxGeometry relative="1" as="geometry">
            <mxPoint x="230" y="169" as="sourcePoint" />
          </mxGeometry>
        </mxCell>
        <mxCell id="RsZEj9lyrCXEbWaPnTaj-5" value="" style="edgeStyle=orthogonalEdgeStyle;rounded=0;orthogonalLoop=1;jettySize=auto;html=1;" parent="1" source="RsZEj9lyrCXEbWaPnTaj-1" target="29rTgdMoYmhlcVRQ41To-87" edge="1">
          <mxGeometry relative="1" as="geometry" />
        </mxCell>
        <mxCell id="RsZEj9lyrCXEbWaPnTaj-6" value="PoPP-Token" style="edgeLabel;html=1;align=center;verticalAlign=middle;resizable=0;points=[];labelBackgroundColor=none;" parent="RsZEj9lyrCXEbWaPnTaj-5" vertex="1" connectable="0">
          <mxGeometry x="-0.1481" relative="1" as="geometry">
            <mxPoint as="offset" />
          </mxGeometry>
        </mxCell>
        <mxCell id="RsZEj9lyrCXEbWaPnTaj-1" value="&lt;div&gt;PoPP&lt;/div&gt;&lt;div&gt;(Client-Funkt.)&lt;/div&gt;" style="rounded=0;whiteSpace=wrap;html=1;fillColor=none;dashed=1;" parent="1" vertex="1">
          <mxGeometry x="200" y="542" width="100" height="40" as="geometry" />
        </mxCell>
        <mxCell id="Ux8lGl-wnyfo4ktNm6vA-5" value="" style="endArrow=none;html=1;rounded=0;entryX=0;entryY=0;entryDx=0;entryDy=15;entryPerimeter=0;exitX=1;exitY=0;exitDx=0;exitDy=0;" parent="1" source="WYYAO5a9UxV3ZW57-LGB-9" target="29rTgdMoYmhlcVRQ41To-87" edge="1">
          <mxGeometry width="50" height="50" relative="1" as="geometry">
            <mxPoint x="70" y="337" as="sourcePoint" />
            <mxPoint x="610" y="587" as="targetPoint" />
          </mxGeometry>
        </mxCell>
        <mxCell id="Ux8lGl-wnyfo4ktNm6vA-6" value="" style="endArrow=none;html=1;rounded=0;entryX=0;entryY=1;entryDx=0;entryDy=-15;entryPerimeter=0;exitX=1.001;exitY=0.992;exitDx=0;exitDy=0;exitPerimeter=0;" parent="1" source="WYYAO5a9UxV3ZW57-LGB-15" target="29rTgdMoYmhlcVRQ41To-87" edge="1">
          <mxGeometry width="50" height="50" relative="1" as="geometry">
            <mxPoint x="69.43000000000006" y="486.74" as="sourcePoint" />
            <mxPoint x="125.36000000000001" y="477" as="targetPoint" />
          </mxGeometry>
        </mxCell>
        <mxCell id="Ux8lGl-wnyfo4ktNm6vA-14" value="" style="rounded=0;whiteSpace=wrap;html=1;fillColor=none;strokeColor=#FF6666;align=right;" parent="1" vertex="1">
          <mxGeometry x="300" y="220" width="270" height="20" as="geometry" />
        </mxCell>
        <mxCell id="Ux8lGl-wnyfo4ktNm6vA-15" value="&lt;span style=&quot;text-align: right;&quot;&gt;&lt;font color=&quot;#ff6666&quot;&gt;ZETA/ASL-Kanal@&lt;/font&gt;&lt;/span&gt;&lt;div&gt;&lt;span style=&quot;text-align: right;&quot;&gt;&lt;font color=&quot;#ff6666&quot;&gt;Komponenten-PKI TI&lt;/font&gt;&lt;/span&gt;&lt;/div&gt;" style="text;html=1;align=center;verticalAlign=middle;whiteSpace=wrap;rounded=0;" parent="1" vertex="1">
          <mxGeometry x="360" y="240" width="110" height="56" as="geometry" />
        </mxCell>
        <mxCell id="Ux8lGl-wnyfo4ktNm6vA-16" value="" style="edgeStyle=orthogonalEdgeStyle;rounded=0;orthogonalLoop=1;jettySize=auto;html=1;entryX=0.75;entryY=0;entryDx=0;entryDy=0;exitX=0.75;exitY=1;exitDx=0;exitDy=0;" parent="1" source="29rTgdMoYmhlcVRQ41To-76" target="29rTgdMoYmhlcVRQ41To-85" edge="1">
          <mxGeometry relative="1" as="geometry">
            <mxPoint x="235" y="320" as="sourcePoint" />
            <mxPoint x="235" y="280" as="targetPoint" />
          </mxGeometry>
        </mxCell>
        <mxCell id="29rTgdMoYmhlcVRQ41To-35" style="edgeStyle=orthogonalEdgeStyle;rounded=1;orthogonalLoop=1;jettySize=auto;html=1;curved=0;exitX=0;exitY=0.5;exitDx=0;exitDy=0;" parent="1" source="Ux8lGl-wnyfo4ktNm6vA-14" edge="1">
          <mxGeometry relative="1" as="geometry">
            <Array as="points">
              <mxPoint x="470" y="230" />
              <mxPoint x="470" y="230" />
            </Array>
            <mxPoint x="470" y="230" as="targetPoint" />
            <mxPoint x="310" y="230" as="sourcePoint" />
          </mxGeometry>
        </mxCell>
        <mxCell id="Ux8lGl-wnyfo4ktNm6vA-19" value="&lt;span style=&quot;&quot;&gt;VSDM-Policy&lt;/span&gt;" style="sketch=0;pointerEvents=1;shadow=0;dashed=0;html=1;strokeColor=none;fillColor=#82B366;labelPosition=center;verticalLabelPosition=bottom;verticalAlign=top;outlineConnect=0;align=center;shape=mxgraph.office.concepts.document;labelBackgroundColor=#FFFFFF;" parent="1" vertex="1">
          <mxGeometry x="435" y="768.38" width="30" height="35" as="geometry" />
        </mxCell>
        <mxCell id="Ux8lGl-wnyfo4ktNm6vA-20" value="Zugriffs-protokoll" style="shape=cylinder3;whiteSpace=wrap;html=1;boundedLbl=1;backgroundOutline=1;size=15;fillColor=#d5e8d4;strokeColor=#000000;" parent="1" vertex="1">
          <mxGeometry x="1135" y="417" width="70" height="66.25" as="geometry" />
        </mxCell>
        <mxCell id="mA7ABEJn_w4v4imi2nxo-9" value="" style="edgeStyle=orthogonalEdgeStyle;rounded=0;orthogonalLoop=1;jettySize=auto;html=1;dashed=1;dashPattern=1 4;" parent="1" source="Ux8lGl-wnyfo4ktNm6vA-22" target="mA7ABEJn_w4v4imi2nxo-4" edge="1">
          <mxGeometry relative="1" as="geometry" />
        </mxCell>
        <mxCell id="mA7ABEJn_w4v4imi2nxo-10" value="" style="edgeStyle=orthogonalEdgeStyle;rounded=0;orthogonalLoop=1;jettySize=auto;html=1;startArrow=classic;startFill=1;endArrow=none;endFill=0;" parent="1" source="Ux8lGl-wnyfo4ktNm6vA-22" target="Ux8lGl-wnyfo4ktNm6vA-23" edge="1">
          <mxGeometry relative="1" as="geometry" />
        </mxCell>
        <mxCell id="Ux8lGl-wnyfo4ktNm6vA-22" value="FHIR-Fassade" style="rounded=1;whiteSpace=wrap;html=1;fillColor=none;" parent="1" vertex="1">
          <mxGeometry x="1120" y="335" width="100" height="40" as="geometry" />
        </mxCell>
        <mxCell id="Ux8lGl-wnyfo4ktNm6vA-23" value="" style="sketch=0;pointerEvents=1;shadow=0;dashed=0;html=1;strokeColor=none;fillColor=#000000;labelPosition=center;verticalLabelPosition=bottom;verticalAlign=top;outlineConnect=0;align=center;shape=mxgraph.office.concepts.document;labelBackgroundColor=none;" parent="1" vertex="1">
          <mxGeometry x="1040" y="337.5" width="30" height="35" as="geometry" />
        </mxCell>
        <mxCell id="Ux8lGl-wnyfo4ktNm6vA-30" value="" style="edgeStyle=orthogonalEdgeStyle;rounded=0;orthogonalLoop=1;jettySize=auto;html=1;exitX=1;exitY=0.5;exitDx=0;exitDy=0;" parent="1" source="Veu_fZ2Ik_sSsAxx7kRS-3" target="Ux8lGl-wnyfo4ktNm6vA-20" edge="1">
          <mxGeometry relative="1" as="geometry">
            <mxPoint x="944.7099999999996" y="366.07000000000016" as="sourcePoint" />
            <mxPoint x="860" y="434.25" as="targetPoint" />
          </mxGeometry>
        </mxCell>
        <mxCell id="Ux8lGl-wnyfo4ktNm6vA-32" value="" style="rounded=0;orthogonalLoop=1;jettySize=auto;html=1;endArrow=halfCircle;endFill=0;endSize=6;strokeWidth=1;sketch=0;dashed=1;dashPattern=1 4;" parent="1" source="Ux8lGl-wnyfo4ktNm6vA-22" edge="1">
          <mxGeometry relative="1" as="geometry">
            <mxPoint x="1244.1400000000003" y="280.5" as="sourcePoint" />
            <mxPoint x="1310" y="355" as="targetPoint" />
          </mxGeometry>
        </mxCell>
        <mxCell id="Ux8lGl-wnyfo4ktNm6vA-34" value="" style="ellipse;whiteSpace=wrap;html=1;align=center;aspect=fixed;fillColor=none;strokeColor=none;resizable=0;perimeter=centerPerimeter;rotatable=0;allowArrows=0;points=[];outlineConnect=1;" parent="1" vertex="1">
          <mxGeometry x="1420" y="190" width="10" height="10" as="geometry" />
        </mxCell>
        <mxCell id="Ux8lGl-wnyfo4ktNm6vA-43" value="" style="rounded=0;orthogonalLoop=1;jettySize=auto;html=1;endArrow=halfCircle;endFill=0;endSize=6;strokeWidth=1;sketch=0;exitX=1;exitY=0.5;exitDx=0;exitDy=0;exitPerimeter=0;entryX=0;entryY=0.5;entryDx=0;entryDy=0;" parent="1" source="Ux8lGl-wnyfo4ktNm6vA-20" target="Ux8lGl-wnyfo4ktNm6vA-45" edge="1">
          <mxGeometry relative="1" as="geometry">
            <mxPoint x="965" y="471.8800000000001" as="sourcePoint" />
            <mxPoint x="1310" y="458" as="targetPoint" />
          </mxGeometry>
        </mxCell>
        <mxCell id="Ux8lGl-wnyfo4ktNm6vA-45" value="&lt;span style=&quot;color: rgb(0, 0, 0); font-family: Helvetica; font-size: 11px; font-style: normal; font-variant-ligatures: normal; font-variant-caps: normal; font-weight: 400; letter-spacing: normal; orphans: 2; text-align: center; text-indent: 0px; text-transform: none; widows: 2; word-spacing: 0px; -webkit-text-stroke-width: 0px; white-space: nowrap; background-color: rgb(255, 255, 255); text-decoration-thickness: initial; text-decoration-style: initial; text-decoration-color: initial; float: none; display: inline !important;&quot;&gt;KTR-&lt;div style=&quot;font-size: 12px; text-wrap: wrap;&quot;&gt;&lt;span style=&quot;font-size: 11px; text-wrap: nowrap;&quot;&gt;Bestandssysteme&lt;/span&gt;&lt;/div&gt;(Zugriffsprotokoll)&lt;/span&gt;" style="text;html=1;align=center;verticalAlign=middle;whiteSpace=wrap;rounded=0;" parent="1" vertex="1">
          <mxGeometry x="1310" y="425.13" width="100" height="50" as="geometry" />
        </mxCell>
        <mxCell id="4ok_WFRXBlFDNo3Pk6dw-8" value="" style="rounded=0;orthogonalLoop=1;jettySize=auto;html=1;endArrow=halfCircle;endFill=0;endSize=6;strokeWidth=1;sketch=0;entryX=0.5;entryY=0;entryDx=0;entryDy=0;" parent="1" target="4ok_WFRXBlFDNo3Pk6dw-12" edge="1">
          <mxGeometry relative="1" as="geometry">
            <mxPoint x="520" y="709.75" as="sourcePoint" />
            <mxPoint x="519.83" y="725.75" as="targetPoint" />
          </mxGeometry>
        </mxCell>
        <mxCell id="4ok_WFRXBlFDNo3Pk6dw-9" value="" style="rounded=0;orthogonalLoop=1;jettySize=auto;html=1;endArrow=halfCircle;endFill=0;endSize=6;strokeWidth=1;sketch=0;entryX=0.504;entryY=-0.09;entryDx=0;entryDy=0;entryPerimeter=0;" parent="1" target="4ok_WFRXBlFDNo3Pk6dw-13" edge="1">
          <mxGeometry relative="1" as="geometry">
            <mxPoint x="570" y="710" as="sourcePoint" />
            <mxPoint x="569.3599999999999" y="719.5" as="targetPoint" />
          </mxGeometry>
        </mxCell>
        <mxCell id="4ok_WFRXBlFDNo3Pk6dw-10" value="" style="rounded=0;orthogonalLoop=1;jettySize=auto;html=1;endArrow=halfCircle;endFill=0;endSize=6;strokeWidth=1;sketch=0;entryX=0.5;entryY=0;entryDx=0;entryDy=0;" parent="1" target="4ok_WFRXBlFDNo3Pk6dw-14" edge="1">
          <mxGeometry relative="1" as="geometry">
            <mxPoint x="650" y="686" as="sourcePoint" />
            <mxPoint x="640" y="705.75" as="targetPoint" />
          </mxGeometry>
        </mxCell>
        <mxCell id="4ok_WFRXBlFDNo3Pk6dw-11" value="" style="rounded=0;orthogonalLoop=1;jettySize=auto;html=1;endArrow=halfCircle;endFill=0;endSize=6;strokeWidth=1;sketch=0;entryX=0.5;entryY=0;entryDx=0;entryDy=0;" parent="1" target="4ok_WFRXBlFDNo3Pk6dw-15" edge="1">
          <mxGeometry relative="1" as="geometry">
            <mxPoint x="450" y="686.25" as="sourcePoint" />
            <mxPoint x="450" y="700" as="targetPoint" />
          </mxGeometry>
        </mxCell>
        <mxCell id="4ok_WFRXBlFDNo3Pk6dw-12" value="BDE" style="text;html=1;align=center;verticalAlign=middle;whiteSpace=wrap;rounded=0;" parent="1" vertex="1">
          <mxGeometry x="490" y="730" width="60" height="20" as="geometry" />
        </mxCell>
        <mxCell id="4ok_WFRXBlFDNo3Pk6dw-13" value="TI SIEM" style="text;html=1;align=center;verticalAlign=middle;whiteSpace=wrap;rounded=0;" parent="1" vertex="1">
          <mxGeometry x="540" y="730" width="60" height="20" as="geometry" />
        </mxCell>
        <mxCell id="4ok_WFRXBlFDNo3Pk6dw-14" value="ZETA Git&amp;nbsp;&lt;span style=&quot;background-color: initial;&quot;&gt;Repository&lt;/span&gt;" style="text;html=1;align=center;verticalAlign=middle;whiteSpace=wrap;rounded=0;" parent="1" vertex="1">
          <mxGeometry x="600" y="730" width="100" height="40" as="geometry" />
        </mxCell>
        <mxCell id="4ok_WFRXBlFDNo3Pk6dw-15" value="ZETA PIP und PAP Service" style="text;html=1;align=center;verticalAlign=middle;whiteSpace=wrap;rounded=0;" parent="1" vertex="1">
          <mxGeometry x="400" y="729.75" width="100" height="30" as="geometry" />
        </mxCell>
        <mxCell id="Veu_fZ2Ik_sSsAxx7kRS-3" value="Zugriffs-protokollierung" style="rounded=1;whiteSpace=wrap;html=1;fillColor=#D5E8D4;" parent="1" vertex="1">
          <mxGeometry x="900" y="430.13" width="90" height="40" as="geometry" />
        </mxCell>
        <mxCell id="JMPoNBZ3KFbZMQvcs8hZ-1" value="" style="edgeStyle=orthogonalEdgeStyle;rounded=0;orthogonalLoop=1;jettySize=auto;html=1;entryX=0.368;entryY=0.014;entryDx=0;entryDy=0;curved=0;exitX=0.25;exitY=1;exitDx=0;exitDy=0;entryPerimeter=0;" parent="1" source="Veu_fZ2Ik_sSsAxx7kRS-4" target="Veu_fZ2Ik_sSsAxx7kRS-3" edge="1">
          <mxGeometry relative="1" as="geometry">
            <mxPoint x="947.5" y="248.75" as="sourcePoint" />
          </mxGeometry>
        </mxCell>
        <mxCell id="Veu_fZ2Ik_sSsAxx7kRS-8" value="" style="edgeStyle=orthogonalEdgeStyle;rounded=1;orthogonalLoop=1;jettySize=auto;html=1;entryX=0;entryY=0.25;entryDx=0;entryDy=0;startArrow=none;startFill=0;curved=0;exitX=1;exitY=0.75;exitDx=0;exitDy=0;" parent="1" source="Veu_fZ2Ik_sSsAxx7kRS-4" target="Ux8lGl-wnyfo4ktNm6vA-22" edge="1">
          <mxGeometry relative="1" as="geometry">
            <Array as="points">
              <mxPoint x="1090" y="210" />
              <mxPoint x="1090" y="345" />
            </Array>
            <mxPoint x="1060" y="245" as="sourcePoint" />
            <mxPoint x="1125" y="270" as="targetPoint" />
          </mxGeometry>
        </mxCell>
        <mxCell id="USjoI9_iPOMPHp6QYIuY-1" value="" style="rounded=0;orthogonalLoop=1;jettySize=auto;html=1;endArrow=halfCircle;endFill=0;endSize=6;strokeWidth=1;sketch=0;dashed=1;exitX=0.75;exitY=1;exitDx=0;exitDy=0;entryX=0.5;entryY=0;entryDx=0;entryDy=0;" parent="1" source="RsZEj9lyrCXEbWaPnTaj-1" target="USjoI9_iPOMPHp6QYIuY-2" edge="1">
          <mxGeometry relative="1" as="geometry">
            <mxPoint x="250" y="545" as="sourcePoint" />
            <mxPoint x="275" y="630" as="targetPoint" />
          </mxGeometry>
        </mxCell>
        <mxCell id="ifHjv8w-46B9kM17yqdW-1" value="via ZETA Client" style="edgeLabel;html=1;align=center;verticalAlign=middle;resizable=0;points=[];" parent="USjoI9_iPOMPHp6QYIuY-1" vertex="1" connectable="0">
          <mxGeometry x="0.1506" y="-2" relative="1" as="geometry">
            <mxPoint as="offset" />
          </mxGeometry>
        </mxCell>
        <mxCell id="USjoI9_iPOMPHp6QYIuY-2" value="PoPP-Dienst" style="text;html=1;align=center;verticalAlign=middle;whiteSpace=wrap;rounded=0;" parent="1" vertex="1">
          <mxGeometry x="245" y="729.75" width="60" height="30" as="geometry" />
        </mxCell>
        <mxCell id="UZmVdI0JqOaVXZEGuSlR-1" value="" style="rounded=0;orthogonalLoop=1;jettySize=auto;html=1;endArrow=halfCircle;endFill=0;endSize=6;strokeWidth=1;sketch=0;exitX=0.25;exitY=1;exitDx=0;exitDy=0;entryX=0.5;entryY=0;entryDx=0;entryDy=0;" parent="1" source="29rTgdMoYmhlcVRQ41To-39" target="UZmVdI0JqOaVXZEGuSlR-2" edge="1">
          <mxGeometry relative="1" as="geometry">
            <mxPoint x="220.00000000000023" y="620" as="sourcePoint" />
            <mxPoint x="220" y="670" as="targetPoint" />
          </mxGeometry>
        </mxCell>
        <mxCell id="UZmVdI0JqOaVXZEGuSlR-2" value="DNS" style="text;html=1;align=center;verticalAlign=middle;whiteSpace=wrap;rounded=0;" parent="1" vertex="1">
          <mxGeometry x="190" y="730" width="60" height="20" as="geometry" />
        </mxCell>
        <mxCell id="UZmVdI0JqOaVXZEGuSlR-3" style="edgeStyle=orthogonalEdgeStyle;rounded=1;orthogonalLoop=1;jettySize=auto;html=1;exitX=0;exitY=0.75;exitDx=0;exitDy=0;curved=0;endArrow=none;endFill=0;" parent="1" source="29rTgdMoYmhlcVRQ41To-15" edge="1">
          <mxGeometry relative="1" as="geometry">
            <Array as="points">
              <mxPoint x="360" y="390" />
              <mxPoint x="360" y="610" />
            </Array>
            <mxPoint x="360" y="710" as="targetPoint" />
            <mxPoint x="520" y="335" as="sourcePoint" />
          </mxGeometry>
        </mxCell>
        <mxCell id="UZmVdI0JqOaVXZEGuSlR-5" value="" style="rounded=0;orthogonalLoop=1;jettySize=auto;html=1;endArrow=halfCircle;endFill=0;endSize=6;strokeWidth=1;sketch=0;entryX=0.5;entryY=0;entryDx=0;entryDy=0;" parent="1" edge="1">
          <mxGeometry relative="1" as="geometry">
            <mxPoint x="359.94999999999993" y="710" as="sourcePoint" />
            <mxPoint x="360" y="729.75" as="targetPoint" />
          </mxGeometry>
        </mxCell>
        <mxCell id="UZmVdI0JqOaVXZEGuSlR-6" value="OCSP TSPX.509nQ&lt;div&gt;SMC-B&lt;/div&gt;" style="text;html=1;align=center;verticalAlign=middle;whiteSpace=wrap;rounded=0;" parent="1" vertex="1">
          <mxGeometry x="310" y="730" width="100" height="45" as="geometry" />
        </mxCell>
        <mxCell id="UZmVdI0JqOaVXZEGuSlR-7" style="edgeStyle=orthogonalEdgeStyle;rounded=1;orthogonalLoop=1;jettySize=auto;html=1;exitX=-0.002;exitY=0.428;exitDx=0;exitDy=0;curved=0;endArrow=none;endFill=0;exitPerimeter=0;" parent="1" source="29rTgdMoYmhlcVRQ41To-78" edge="1">
          <mxGeometry relative="1" as="geometry">
            <Array as="points">
              <mxPoint x="350" y="210" />
            </Array>
            <mxPoint x="350" y="80" as="targetPoint" />
            <mxPoint x="590" y="340" as="sourcePoint" />
          </mxGeometry>
        </mxCell>
        <mxCell id="UZmVdI0JqOaVXZEGuSlR-9" style="edgeStyle=orthogonalEdgeStyle;rounded=1;orthogonalLoop=1;jettySize=auto;html=1;exitX=0;exitY=0.25;exitDx=0;exitDy=0;curved=0;endArrow=none;endFill=0;" parent="1" source="29rTgdMoYmhlcVRQ41To-78" edge="1">
          <mxGeometry relative="1" as="geometry">
            <Array as="points">
              <mxPoint x="450" y="198" />
            </Array>
            <mxPoint x="450" y="80" as="targetPoint" />
            <mxPoint x="665" y="210" as="sourcePoint" />
          </mxGeometry>
        </mxCell>
        <mxCell id="UZmVdI0JqOaVXZEGuSlR-11" value="&lt;div&gt;PoPP-Token Validierung&lt;/div&gt;&lt;div&gt;- Federation Master (&lt;span style=&quot;background-color: initial;&quot;&gt;Entity Statement)&lt;/span&gt;&lt;/div&gt;&lt;div&gt;- PoPP-Service (JWKS)&lt;/div&gt;" style="text;html=1;align=right;verticalAlign=middle;whiteSpace=wrap;rounded=0;" parent="1" vertex="1">
          <mxGeometry x="170" y="10" width="215" height="50" as="geometry" />
        </mxCell>
        <mxCell id="UZmVdI0JqOaVXZEGuSlR-12" value="OCSP und OCSP-Stapling&lt;br&gt;- Komponenten-CA TI&amp;nbsp;&lt;span style=&quot;background-color: initial;&quot;&gt;(ZETA/ASL-Kanal)&lt;/span&gt;&lt;div&gt;&lt;span style=&quot;background-color: initial;&quot;&gt;-&amp;nbsp;&lt;/span&gt;&lt;span style=&quot;background-color: initial;&quot;&gt;Internet-CA&amp;nbsp;&lt;/span&gt;&lt;span style=&quot;background-color: initial;&quot;&gt;(TLS)&lt;/span&gt;&lt;/div&gt;" style="text;html=1;align=left;verticalAlign=middle;whiteSpace=wrap;rounded=0;" parent="1" vertex="1">
          <mxGeometry x="420" y="15" width="230" height="45" as="geometry" />
        </mxCell>
        <mxCell id="UZmVdI0JqOaVXZEGuSlR-13" value="" style="rounded=0;orthogonalLoop=1;jettySize=auto;html=1;endArrow=halfCircle;endFill=0;endSize=6;strokeWidth=1;sketch=0;" parent="1" edge="1">
          <mxGeometry relative="1" as="geometry">
            <mxPoint x="450" y="80" as="sourcePoint" />
            <mxPoint x="449.7099999999999" y="59.75" as="targetPoint" />
          </mxGeometry>
        </mxCell>
        <mxCell id="UZmVdI0JqOaVXZEGuSlR-14" value="" style="rounded=0;orthogonalLoop=1;jettySize=auto;html=1;endArrow=halfCircle;endFill=0;endSize=6;strokeWidth=1;sketch=0;entryX=0.837;entryY=0.997;entryDx=0;entryDy=0;entryPerimeter=0;" parent="1" target="UZmVdI0JqOaVXZEGuSlR-11" edge="1">
          <mxGeometry relative="1" as="geometry">
            <mxPoint x="350" y="80" as="sourcePoint" />
            <mxPoint x="343.9999999999999" y="60" as="targetPoint" />
          </mxGeometry>
        </mxCell>
        <mxCell id="WYYAO5a9UxV3ZW57-LGB-9" value="&lt;font style=&quot;font-size: 14px;&quot;&gt;Datenbank&lt;/font&gt;" style="swimlane;fontStyle=0;childLayout=stackLayout;horizontal=1;startSize=40;horizontalStack=0;resizeParent=1;resizeParentMax=0;resizeLast=0;collapsible=1;marginBottom=0;whiteSpace=wrap;html=1;" parent="1" vertex="1">
          <mxGeometry x="-10" y="430" width="160" height="160" as="geometry" />
        </mxCell>
        <mxCell id="WYYAO5a9UxV3ZW57-LGB-10" value="&lt;span style=&quot;background-color: initial; font-size: 12px;&quot;&gt;Versichertenstammdaten&lt;/span&gt;" style="text;strokeColor=default;fillColor=none;align=left;verticalAlign=middle;spacingLeft=2;spacingRight=2;overflow=hidden;points=[[0,0.5],[1,0.5]];portConstraint=eastwest;rotatable=0;whiteSpace=wrap;html=1;fontSize=12;fontColor=#000000;" parent="WYYAO5a9UxV3ZW57-LGB-9" vertex="1">
          <mxGeometry y="40" width="160" height="20" as="geometry" />
        </mxCell>
        <mxCell id="WYYAO5a9UxV3ZW57-LGB-11" value="&lt;span style=&quot;background-color: initial; font-size: 12px;&quot;&gt;&lt;font face=&quot;Helvetica&quot; style=&quot;font-size: 12px;&quot;&gt;VSD-ETag&lt;/font&gt;&lt;/span&gt;" style="text;strokeColor=default;fillColor=none;align=left;verticalAlign=middle;spacingLeft=2;spacingRight=2;overflow=hidden;points=[[0,0.5],[1,0.5]];portConstraint=eastwest;rotatable=0;whiteSpace=wrap;html=1;fontSize=12;" parent="WYYAO5a9UxV3ZW57-LGB-9" vertex="1">
          <mxGeometry y="60" width="160" height="20" as="geometry" />
        </mxCell>
        <mxCell id="WYYAO5a9UxV3ZW57-LGB-12" value="&lt;span style=&quot;background-color: initial; font-size: 12px;&quot;&gt;Prüfziffer&lt;/span&gt;" style="text;strokeColor=default;fillColor=none;align=left;verticalAlign=middle;spacingLeft=2;spacingRight=2;overflow=hidden;points=[[0,0.5],[1,0.5]];portConstraint=eastwest;rotatable=0;whiteSpace=wrap;html=1;fontSize=12;fontColor=#000000;" parent="WYYAO5a9UxV3ZW57-LGB-9" vertex="1">
          <mxGeometry y="80" width="160" height="20" as="geometry" />
        </mxCell>
        <mxCell id="WYYAO5a9UxV3ZW57-LGB-13" value="&lt;span style=&quot;font-size: 12px;&quot;&gt;&lt;font face=&quot;Helvetica&quot; style=&quot;font-size: 12px;&quot;&gt;PoPP-Token&lt;/font&gt;&lt;/span&gt;" style="text;strokeColor=default;fillColor=none;align=left;verticalAlign=middle;spacingLeft=2;spacingRight=2;overflow=hidden;points=[[0,0.5],[1,0.5]];portConstraint=eastwest;rotatable=0;whiteSpace=wrap;html=1;fontSize=12;fontColor=#000000;" parent="WYYAO5a9UxV3ZW57-LGB-9" vertex="1">
          <mxGeometry y="100" width="160" height="20" as="geometry" />
        </mxCell>
        <mxCell id="WYYAO5a9UxV3ZW57-LGB-14" value="Krankenversichertennummer" style="text;strokeColor=default;fillColor=none;align=left;verticalAlign=middle;spacingLeft=2;spacingRight=2;overflow=hidden;points=[[0,0.5],[1,0.5]];portConstraint=eastwest;rotatable=0;whiteSpace=wrap;html=1;fontSize=12;" parent="WYYAO5a9UxV3ZW57-LGB-9" vertex="1">
          <mxGeometry y="120" width="160" height="20" as="geometry" />
        </mxCell>
        <mxCell id="WYYAO5a9UxV3ZW57-LGB-15" value="&lt;font face=&quot;Helvetica&quot; style=&quot;font-size: 12px;&quot;&gt;&lt;span style=&quot;font-size: 12px;&quot;&gt;Institutionskennung KTR&lt;/span&gt;&lt;/font&gt;" style="text;strokeColor=default;fillColor=none;align=left;verticalAlign=middle;spacingLeft=2;spacingRight=2;overflow=hidden;points=[[0,0.5],[1,0.5]];portConstraint=eastwest;rotatable=0;whiteSpace=wrap;html=1;fontSize=12;fontColor=#000000;" parent="WYYAO5a9UxV3ZW57-LGB-9" vertex="1">
          <mxGeometry y="140" width="160" height="20" as="geometry" />
        </mxCell>
        <mxCell id="WGu5ZAYpoWvmzztNCjQf-4" value="TLS@Internet-PKI" style="rounded=1;whiteSpace=wrap;html=1;fillColor=default;strokeColor=default;dashed=1;" parent="1" vertex="1">
          <mxGeometry x="340" y="223" width="110" height="14" as="geometry" />
        </mxCell>
        <mxCell id="y5Bz5w09_a10lvHmToGj-2" value="" style="edgeStyle=orthogonalEdgeStyle;rounded=0;orthogonalLoop=1;jettySize=auto;html=1;" parent="1" source="7Tdx6mqpSsqZb4YxP3zN-1" target="y5Bz5w09_a10lvHmToGj-1" edge="1">
          <mxGeometry relative="1" as="geometry" />
        </mxCell>
        <mxCell id="7Tdx6mqpSsqZb4YxP3zN-1" value="Client Registry" style="rounded=0;whiteSpace=wrap;html=1;fillColor=#ffe6cc;strokeColor=#d79b00;" parent="1" vertex="1">
          <mxGeometry x="570" y="300" width="120" height="40" as="geometry" />
        </mxCell>
        <mxCell id="eh9vk2TK4S6zh4HiUIDi-1" value="eGK" style="rounded=0;whiteSpace=wrap;html=1;fillColor=#eeeeee;strokeColor=#36393d;" parent="1" vertex="1">
          <mxGeometry x="75.24" y="320" width="65" height="40" as="geometry" />
        </mxCell>
        <mxCell id="Sa-0AyuytdpOppMepQPU-1" value="&lt;span style=&quot;&quot;&gt;VSDM- und Betreiber-&lt;/span&gt;spezifische&lt;div&gt;&lt;span style=&quot;&quot;&gt;Konfigurationsdateien&lt;/span&gt;&lt;/div&gt;" style="sketch=0;pointerEvents=1;shadow=0;dashed=0;html=1;strokeColor=none;fillColor=#82B366;labelPosition=center;verticalLabelPosition=bottom;verticalAlign=top;outlineConnect=0;align=center;shape=mxgraph.office.concepts.document;labelBackgroundColor=#FFFFFF;" parent="1" vertex="1">
          <mxGeometry x="640" y="768.38" width="30" height="35" as="geometry" />
        </mxCell>
        <mxCell id="IEj9VLfv4YksJk9ZvM38-1" value="VSD-Aktualitätsprüfung" style="rounded=1;whiteSpace=wrap;html=1;fillColor=none;" parent="1" vertex="1">
          <mxGeometry x="1120" y="180" width="100" height="40" as="geometry" />
        </mxCell>
        <mxCell id="IEj9VLfv4YksJk9ZvM38-11" value="&lt;span style=&quot;color: rgb(0, 0, 0); font-family: Helvetica; font-size: 11px; font-style: normal; font-variant-ligatures: normal; font-variant-caps: normal; font-weight: 400; letter-spacing: normal; orphans: 2; text-align: center; text-indent: 0px; text-transform: none; widows: 2; word-spacing: 0px; -webkit-text-stroke-width: 0px; white-space: nowrap; background-color: rgb(255, 255, 255); text-decoration-thickness: initial; text-decoration-style: initial; text-decoration-color: initial; display: inline !important; float: none;&quot;&gt;KTR-&lt;/span&gt;&lt;div&gt;&lt;span style=&quot;color: rgb(0, 0, 0); font-family: Helvetica; font-size: 11px; font-style: normal; font-variant-ligatures: normal; font-variant-caps: normal; font-weight: 400; letter-spacing: normal; orphans: 2; text-align: center; text-indent: 0px; text-transform: none; widows: 2; word-spacing: 0px; -webkit-text-stroke-width: 0px; white-space: nowrap; background-color: rgb(255, 255, 255); text-decoration-thickness: initial; text-decoration-style: initial; text-decoration-color: initial; display: inline !important; float: none;&quot;&gt;Bestandssysteme&lt;/span&gt;&lt;div&gt;(Aktualitätsprüfung)&lt;/div&gt;&lt;/div&gt;" style="text;html=1;align=center;verticalAlign=middle;whiteSpace=wrap;rounded=0;" parent="1" vertex="1">
          <mxGeometry x="1310" y="170" width="120" height="60" as="geometry" />
        </mxCell>
        <mxCell id="IEj9VLfv4YksJk9ZvM38-12" value="" style="rounded=0;orthogonalLoop=1;jettySize=auto;html=1;endArrow=halfCircle;endFill=0;endSize=6;strokeWidth=1;sketch=0;exitX=1;exitY=0.5;exitDx=0;exitDy=0;dashed=1;dashPattern=1 4;" parent="1" source="IEj9VLfv4YksJk9ZvM38-1" edge="1">
          <mxGeometry relative="1" as="geometry">
            <mxPoint x="1210.0000000000002" y="204" as="sourcePoint" />
            <mxPoint x="1310" y="200" as="targetPoint" />
          </mxGeometry>
        </mxCell>
        <mxCell id="d0CA0vomVEIhd1OODavQ-1" style="edgeStyle=orthogonalEdgeStyle;rounded=1;orthogonalLoop=1;jettySize=auto;html=1;entryX=0;entryY=0.5;entryDx=0;entryDy=0;curved=0;" parent="1" target="7Tdx6mqpSsqZb4YxP3zN-1" edge="1">
          <mxGeometry relative="1" as="geometry">
            <Array as="points">
              <mxPoint x="360" y="250" />
              <mxPoint x="360" y="320" />
            </Array>
            <mxPoint x="300" y="250" as="sourcePoint" />
            <mxPoint x="570" y="365" as="targetPoint" />
          </mxGeometry>
        </mxCell>
        <mxCell id="mA7ABEJn_w4v4imi2nxo-3" value="" style="endArrow=none;dashed=1;html=1;dashPattern=1 4;strokeWidth=1;rounded=0;exitX=1;exitY=1;exitDx=0;exitDy=0;entryX=0;entryY=0;entryDx=0;entryDy=0;" parent="1" source="mA7ABEJn_w4v4imi2nxo-2" edge="1">
          <mxGeometry width="50" height="50" relative="1" as="geometry">
            <mxPoint x="680" y="450" as="sourcePoint" />
            <mxPoint x="340.0000000000002" y="223" as="targetPoint" />
          </mxGeometry>
        </mxCell>
        <mxCell id="mA7ABEJn_w4v4imi2nxo-4" value="VSD-DB" style="shape=cylinder3;whiteSpace=wrap;html=1;boundedLbl=1;backgroundOutline=1;size=15;fillColor=#d5e8d4;strokeColor=#000000;dashed=1;dashPattern=1 4;" parent="1" vertex="1">
          <mxGeometry x="1135" y="253" width="70" height="58.75" as="geometry" />
        </mxCell>
        <mxCell id="mA7ABEJn_w4v4imi2nxo-5" value="Erstellung&amp;nbsp;&lt;br&gt;&lt;span style=&quot;background-color: transparent; color: light-dark(rgb(0, 0, 0), rgb(255, 255, 255));&quot;&gt;Prüfzifffer&lt;/span&gt;" style="rounded=1;whiteSpace=wrap;html=1;fillColor=none;" parent="1" vertex="1">
          <mxGeometry x="950" y="248.22" width="110" height="39.56" as="geometry" />
        </mxCell>
        <mxCell id="mA7ABEJn_w4v4imi2nxo-6" value="" style="edgeStyle=orthogonalEdgeStyle;rounded=0;orthogonalLoop=1;jettySize=auto;html=1;startArrow=none;startFill=0;curved=0;entryX=0.5;entryY=0;entryDx=0;entryDy=0;exitX=0.75;exitY=1;exitDx=0;exitDy=0;" parent="1" source="Veu_fZ2Ik_sSsAxx7kRS-4" target="mA7ABEJn_w4v4imi2nxo-5" edge="1">
          <mxGeometry relative="1" as="geometry">
            <Array as="points" />
            <mxPoint x="1030" y="263.75" as="sourcePoint" />
            <mxPoint x="1090" y="203.75" as="targetPoint" />
          </mxGeometry>
        </mxCell>
        <mxCell id="mA7ABEJn_w4v4imi2nxo-8" value="" style="endArrow=classic;html=1;rounded=0;exitX=0.5;exitY=1;exitDx=0;exitDy=0;dashed=1;dashPattern=1 4;" parent="1" source="IEj9VLfv4YksJk9ZvM38-1" target="mA7ABEJn_w4v4imi2nxo-4" edge="1">
          <mxGeometry width="50" height="50" relative="1" as="geometry">
            <mxPoint x="1400" y="480" as="sourcePoint" />
            <mxPoint x="1450" y="430" as="targetPoint" />
          </mxGeometry>
        </mxCell>
        <mxCell id="mA7ABEJn_w4v4imi2nxo-12" value="" style="rounded=0;orthogonalLoop=1;jettySize=auto;html=1;endArrow=halfCircle;endFill=0;endSize=6;strokeWidth=1;sketch=0;exitX=1;exitY=0.5;exitDx=0;exitDy=0;exitPerimeter=0;dashed=1;dashPattern=1 4;" parent="1" source="mA7ABEJn_w4v4imi2nxo-4" edge="1">
          <mxGeometry relative="1" as="geometry">
            <mxPoint x="1210" y="282.18" as="sourcePoint" />
            <mxPoint x="1310" y="282.18" as="targetPoint" />
          </mxGeometry>
        </mxCell>
        <mxCell id="mA7ABEJn_w4v4imi2nxo-13" value="&lt;span style=&quot;color: rgb(0, 0, 0); font-family: Helvetica; font-size: 11px; font-style: normal; font-variant-ligatures: normal; font-variant-caps: normal; font-weight: 400; letter-spacing: normal; orphans: 2; text-align: center; text-indent: 0px; text-transform: none; widows: 2; word-spacing: 0px; -webkit-text-stroke-width: 0px; white-space: nowrap; background-color: rgb(255, 255, 255); text-decoration-thickness: initial; text-decoration-style: initial; text-decoration-color: initial; display: inline !important; float: none;&quot;&gt;KTR-&lt;/span&gt;&lt;div&gt;&lt;span style=&quot;color: rgb(0, 0, 0); font-family: Helvetica; font-size: 11px; font-style: normal; font-variant-ligatures: normal; font-variant-caps: normal; font-weight: 400; letter-spacing: normal; orphans: 2; text-align: center; text-indent: 0px; text-transform: none; widows: 2; word-spacing: 0px; -webkit-text-stroke-width: 0px; white-space: nowrap; background-color: rgb(255, 255, 255); text-decoration-thickness: initial; text-decoration-style: initial; text-decoration-color: initial; display: inline !important; float: none;&quot;&gt;Bestandssysteme&lt;/span&gt;&lt;div&gt;(Datenbankreplikation)&lt;/div&gt;&lt;/div&gt;" style="text;html=1;align=center;verticalAlign=middle;whiteSpace=wrap;rounded=0;" parent="1" vertex="1">
          <mxGeometry x="1310" y="260" width="130" height="40" as="geometry" />
        </mxCell>
        <mxCell id="mA7ABEJn_w4v4imi2nxo-14" value="&lt;span style=&quot;color: rgb(0, 0, 0); font-family: Helvetica; font-size: 11px; font-style: normal; font-variant-ligatures: normal; font-variant-caps: normal; font-weight: 400; letter-spacing: normal; orphans: 2; text-align: center; text-indent: 0px; text-transform: none; widows: 2; word-spacing: 0px; -webkit-text-stroke-width: 0px; white-space: nowrap; background-color: rgb(255, 255, 255); text-decoration-thickness: initial; text-decoration-style: initial; text-decoration-color: initial; display: inline !important; float: none;&quot;&gt;KTR-&lt;/span&gt;&lt;div&gt;&lt;span style=&quot;color: rgb(0, 0, 0); font-family: Helvetica; font-size: 11px; font-style: normal; font-variant-ligatures: normal; font-variant-caps: normal; font-weight: 400; letter-spacing: normal; orphans: 2; text-align: center; text-indent: 0px; text-transform: none; widows: 2; word-spacing: 0px; -webkit-text-stroke-width: 0px; white-space: nowrap; background-color: rgb(255, 255, 255); text-decoration-thickness: initial; text-decoration-style: initial; text-decoration-color: initial; display: inline !important; float: none;&quot;&gt;Bestandssysteme&lt;/span&gt;&lt;div&gt;(VSD-Abruf)&lt;/div&gt;&lt;/div&gt;" style="text;html=1;align=center;verticalAlign=middle;whiteSpace=wrap;rounded=0;" parent="1" vertex="1">
          <mxGeometry x="1310" y="330" width="100" height="50" as="geometry" />
        </mxCell>
        <mxCell id="mA7ABEJn_w4v4imi2nxo-15" value="&lt;span style=&quot;text-wrap-mode: nowrap;&quot;&gt;Mapping-Regeln&amp;nbsp;&lt;/span&gt;&lt;br style=&quot;text-wrap-mode: nowrap;&quot;&gt;&lt;span style=&quot;text-wrap-mode: nowrap;&quot;&gt;gemäß FHIR-Profile:&lt;/span&gt;&lt;br style=&quot;text-wrap-mode: nowrap;&quot;&gt;&lt;span style=&quot;text-wrap-mode: nowrap;&quot;&gt;VSDMPatient,&lt;/span&gt;&lt;div style=&quot;text-wrap-mode: nowrap;&quot;&gt;VSDMCoverage,&lt;/div&gt;&lt;div style=&quot;text-wrap-mode: nowrap;&quot;&gt;VSDMBundle&lt;/div&gt;" style="text;html=1;align=left;verticalAlign=middle;whiteSpace=wrap;rounded=0;fontSize=11;" parent="1" vertex="1">
          <mxGeometry x="950" y="300" width="100" height="77.5" as="geometry" />
        </mxCell>
        <mxCell id="y5Bz5w09_a10lvHmToGj-1" value="PDP Datenbank" style="rounded=0;whiteSpace=wrap;html=1;fillColor=#ffe6cc;strokeColor=#d79b00;" parent="1" vertex="1">
          <mxGeometry x="730" y="300" width="110" height="40" as="geometry" />
        </mxCell>
        <mxCell id="y5Bz5w09_a10lvHmToGj-3" value="" style="edgeStyle=orthogonalEdgeStyle;rounded=1;orthogonalLoop=1;jettySize=auto;html=1;exitX=1;exitY=0.5;exitDx=0;exitDy=0;entryX=0;entryY=0.75;entryDx=0;entryDy=0;curved=0;" parent="1" source="29rTgdMoYmhlcVRQ41To-15" target="y5Bz5w09_a10lvHmToGj-1" edge="1">
          <mxGeometry relative="1" as="geometry">
            <mxPoint x="700" y="330" as="sourcePoint" />
            <mxPoint x="730" y="330" as="targetPoint" />
            <Array as="points">
              <mxPoint x="700" y="380" />
              <mxPoint x="700" y="330" />
            </Array>
          </mxGeometry>
        </mxCell>
        <mxCell id="y5Bz5w09_a10lvHmToGj-4" value="" style="edgeStyle=orthogonalEdgeStyle;rounded=1;orthogonalLoop=1;jettySize=auto;html=1;exitX=1;exitY=0.75;exitDx=0;exitDy=0;entryX=0;entryY=0.25;entryDx=0;entryDy=0;curved=0;" parent="1" source="29rTgdMoYmhlcVRQ41To-78" target="y5Bz5w09_a10lvHmToGj-1" edge="1">
          <mxGeometry relative="1" as="geometry">
            <mxPoint x="700" y="380" as="sourcePoint" />
            <mxPoint x="730" y="340" as="targetPoint" />
            <Array as="points">
              <mxPoint x="700" y="233" />
              <mxPoint x="700" y="310" />
            </Array>
          </mxGeometry>
        </mxCell>
        <mxCell id="y5Bz5w09_a10lvHmToGj-5" value="PEP Datenbank" style="rounded=0;whiteSpace=wrap;html=1;fillColor=#ffe6cc;strokeColor=#d79b00;" parent="1" vertex="1">
          <mxGeometry x="730" y="210" width="110" height="40" as="geometry" />
        </mxCell>
        <mxCell id="kJqwXl-6ZBxffu8ja5CK-6" value="" style="edgeStyle=orthogonalEdgeStyle;rounded=1;orthogonalLoop=1;jettySize=auto;html=1;curved=0;endArrow=none;endFill=0;exitX=0;exitY=0.75;exitDx=0;exitDy=0;" parent="1" source="29rTgdMoYmhlcVRQ41To-28" edge="1">
          <mxGeometry relative="1" as="geometry">
            <mxPoint x="735" y="503" as="sourcePoint" />
            <mxPoint x="570" y="710" as="targetPoint" />
            <Array as="points">
              <mxPoint x="700" y="520" />
              <mxPoint x="700" y="484" />
              <mxPoint x="460" y="484" />
              <mxPoint x="460" y="650" />
              <mxPoint x="570" y="650" />
            </Array>
          </mxGeometry>
        </mxCell>
        <mxCell id="Veu_fZ2Ik_sSsAxx7kRS-4" value="VSDService&lt;span style=&quot;background-color: initial;&quot;&gt;-API&lt;/span&gt;" style="rounded=1;whiteSpace=wrap;html=1;fillColor=none;" parent="1" vertex="1">
          <mxGeometry x="890" y="180" width="170" height="40" as="geometry" />
        </mxCell>
        <mxCell id="gxVGAsNlWDkxe-efT7vW-3" value="" style="endArrow=classic;html=1;rounded=0;exitX=1;exitY=0.5;exitDx=0;exitDy=0;" parent="1" source="Veu_fZ2Ik_sSsAxx7kRS-4" target="IEj9VLfv4YksJk9ZvM38-1" edge="1">
          <mxGeometry width="50" height="50" relative="1" as="geometry">
            <mxPoint x="1090" y="460" as="sourcePoint" />
            <mxPoint x="1140" y="410" as="targetPoint" />
          </mxGeometry>
        </mxCell>
        <mxCell id="gxVGAsNlWDkxe-efT7vW-4" value="" style="endArrow=classic;html=1;rounded=0;exitX=1;exitY=0.25;exitDx=0;exitDy=0;entryX=0.002;entryY=0.443;entryDx=0;entryDy=0;entryPerimeter=0;" parent="1" source="29rTgdMoYmhlcVRQ41To-78" target="Veu_fZ2Ik_sSsAxx7kRS-4" edge="1">
          <mxGeometry width="50" height="50" relative="1" as="geometry">
            <mxPoint x="1070" y="210" as="sourcePoint" />
            <mxPoint x="891" y="197" as="targetPoint" />
          </mxGeometry>
        </mxCell>
        <mxCell id="gxVGAsNlWDkxe-efT7vW-5" value="&lt;div&gt;Monitoring&lt;/div&gt;" style="rounded=0;whiteSpace=wrap;html=1;fillColor=#d5e8d4;strokeColor=#82b366;dashed=1;" parent="1" vertex="1">
          <mxGeometry x="890" y="505" width="340" height="27" as="geometry" />
        </mxCell>
        <mxCell id="gxVGAsNlWDkxe-efT7vW-9" value="" style="endArrow=classic;html=1;rounded=0;entryX=1.002;entryY=0.929;entryDx=0;entryDy=0;entryPerimeter=0;" parent="1" target="29rTgdMoYmhlcVRQ41To-2" edge="1">
          <mxGeometry width="50" height="50" relative="1" as="geometry">
            <mxPoint x="880" y="510" as="sourcePoint" />
            <mxPoint x="1233" y="619" as="targetPoint" />
          </mxGeometry>
        </mxCell>
        <mxCell id="gxVGAsNlWDkxe-efT7vW-10" value="" style="rounded=0;whiteSpace=wrap;html=1;dashed=1;" parent="1" vertex="1">
          <mxGeometry y="770" width="80" height="20" as="geometry" />
        </mxCell>
        <mxCell id="gxVGAsNlWDkxe-efT7vW-11" value="optional" style="text;html=1;align=right;verticalAlign=middle;whiteSpace=wrap;rounded=0;" parent="1" vertex="1">
          <mxGeometry x="90" y="769.75" width="70" height="20" as="geometry" />
        </mxCell>
        <mxCell id="axwi4brHFKcjn__SztSx-6" value="" style="edgeStyle=orthogonalEdgeStyle;rounded=0;orthogonalLoop=1;jettySize=auto;html=1;entryX=0.623;entryY=1.002;entryDx=0;entryDy=0;entryPerimeter=0;" parent="1" source="axwi4brHFKcjn__SztSx-1" target="gxVGAsNlWDkxe-efT7vW-1" edge="1">
          <mxGeometry relative="1" as="geometry" />
        </mxCell>
        <mxCell id="axwi4brHFKcjn__SztSx-1" value="Hersteller VSDD" style="sketch=0;outlineConnect=0;fontColor=#232F3E;gradientColor=none;strokeColor=#232F3E;fillColor=#ffffff;dashed=0;verticalLabelPosition=bottom;verticalAlign=top;align=center;html=1;fontSize=12;fontStyle=0;aspect=fixed;shape=mxgraph.aws4.resourceIcon;resIcon=mxgraph.aws4.user;" parent="1" vertex="1">
          <mxGeometry x="1075" y="700" width="60" height="60" as="geometry" />
        </mxCell>
        <mxCell id="axwi4brHFKcjn__SztSx-3" value="" style="edgeStyle=orthogonalEdgeStyle;rounded=0;orthogonalLoop=1;jettySize=auto;html=1;entryX=0.937;entryY=1.004;entryDx=0;entryDy=0;entryPerimeter=0;" parent="1" source="axwi4brHFKcjn__SztSx-2" target="29rTgdMoYmhlcVRQ41To-1" edge="1">
          <mxGeometry relative="1" as="geometry" />
        </mxCell>
        <mxCell id="axwi4brHFKcjn__SztSx-2" value="Anbieter VSDD" style="sketch=0;outlineConnect=0;fontColor=#232F3E;gradientColor=none;strokeColor=#232F3E;fillColor=#ffffff;dashed=0;verticalLabelPosition=bottom;verticalAlign=top;align=center;html=1;fontSize=12;fontStyle=0;aspect=fixed;shape=mxgraph.aws4.resourceIcon;resIcon=mxgraph.aws4.user;" parent="1" vertex="1">
          <mxGeometry x="1180" y="699.75" width="60" height="60" as="geometry" />
        </mxCell>
      </root>
    </mxGraphModel>
  </diagram>
</mxfile>
